<?xml version="1.0" encoding="utf-8"?>
<!-- Generator: Adobe Illustrator 19.0.0, SVG Export Plug-In . SVG Version: 6.00 Build 0)  -->
<svg xmlns="http://www.w3.org/2000/svg" xmlns:xlink="http://www.w3.org/1999/xlink" version="1.1" id="Layer_1" x="0px" y="0px" viewBox="0 2 98 98" style="enable-background:new 0 2 98 98;" xml:space="preserve" width="512" height="512">
<style type="text/css">
	.st0{fill:url(#SVGID_1_);}
	.st1{fill:url(#SVGID_2_);}
	.st2{fill:url(#SVGID_3_);}
</style>
<g>
	
		<linearGradient id="SVGID_1_" gradientUnits="userSpaceOnUse" x1="37.65" y1="93.45" x2="37.65" y2="5.8344" gradientTransform="matrix(1 0 0 -1 0 104)">
		<stop offset="0" style="stop-color:#00EFD1"/>
		<stop offset="1" style="stop-color:#00ACEA"/>
	</linearGradient>
	<path class="st0" d="M61.2,28.3c-5.6,0-10.2,4.4-10.6,9.9l-11,2.9c-3.2-2.4-6.4-4.5-9.5-6c-9.2-4.7-13.8-3-16-0.9l0,0   C7.2,41.1,3.4,50.3,3.4,60c0,9.8,3.8,19,10.7,25.9c7.2,7.1,16.6,10.7,26,10.7S58.9,93.1,66,86l0,0c4.8-4.9,0.8-15.2-6.9-25.4   L62,49.5c5.5-0.4,9.9-5,9.9-10.6C71.8,33,67.1,28.3,61.2,28.3z M51.8,44.1l-4,3.9c-0.8-0.8-1.7-1.5-2.5-2.3L51.8,44.1z M18.3,81.8   c-5.8-5.8-9-13.4-9-21.6c0-5.2,1.3-10.2,3.7-14.6c2.5,7.5,9.1,16.7,17,24.5c7.9,7.9,17.1,14.5,24.6,17C43,93.2,28.2,91.6,18.3,81.8   z M59.7,72.8c2.7,5.4,2.7,8.3,2,9c-2,2-13.9-2.5-27.4-15.9C20.9,52.5,16.4,40.5,18.4,38.5c0.7-0.7,3.7-0.7,9,2   c1.5,0.7,3,1.6,4.5,2.6l-5.6,1.4c-1.6,0.4-2.6,2.1-2.2,3.7c0.4,1.4,1.6,2.2,2.9,2.2c0.2,0,0.5,0,0.8-0.1l10.3-2.7   c1.8,1.4,3.6,3,5.4,4.7L35.8,60c-1.2,1.2-1.2,3.1,0,4.2c0.6,0.6,1.4,0.9,2.1,0.9c0.8,0,1.5-0.3,2.1-0.9l7.8-7.8   c1.7,1.8,3.2,3.6,4.7,5.4l-2.7,10.4c-0.4,1.6,0.5,3.2,2.2,3.7c0.3,0.1,0.5,0.1,0.8,0.1c1.3,0,2.6-0.9,2.9-2.2l1.4-5.6   C58.1,69.8,59,71.2,59.7,72.8z M52.1,52.2l3.9-3.9l-1.7,6.4C53.6,54,52.9,53.1,52.1,52.2z M61.2,43.5c-2.5,0-4.6-2.1-4.6-4.6   s2.1-4.6,4.6-4.6s4.6,2.1,4.6,4.6C65.8,41.5,63.8,43.5,61.2,43.5z"/>
	
		<linearGradient id="SVGID_2_" gradientUnits="userSpaceOnUse" x1="78.15" y1="93.45" x2="78.15" y2="5.8344" gradientTransform="matrix(1 0 0 -1 0 104)">
		<stop offset="0" style="stop-color:#00EFD1"/>
		<stop offset="1" style="stop-color:#00ACEA"/>
	</linearGradient>
	<path class="st1" d="M64.7,5.4c-1.7,0-3,1.3-3,3s1.3,3,3,3c13.2,0,23.9,10.7,23.9,23.9c0,1.7,1.3,3,3,3s3-1.3,3-3   C94.6,18.9,81.2,5.4,64.7,5.4z"/>
	
		<linearGradient id="SVGID_3_" gradientUnits="userSpaceOnUse" x1="72.1" y1="93.45" x2="72.1" y2="5.8344" gradientTransform="matrix(1 0 0 -1 0 104)">
		<stop offset="0" style="stop-color:#00EFD1"/>
		<stop offset="1" style="stop-color:#00ACEA"/>
	</linearGradient>
	<path class="st2" d="M64.7,17.6c-1.7,0-3,1.3-3,3s1.3,3,3,3c6.5,0,11.8,5.3,11.8,11.8c0,1.7,1.3,3,3,3s3-1.3,3-3   C82.5,25.6,74.5,17.6,64.7,17.6z"/>
</g>
</svg>
